<?xml version="1.0" encoding="UTF-8"?>
<svg width="286px" height="79px" viewBox="0 0 286 79" version="1.1" xmlns="http://www.w3.org/2000/svg" xmlns:xlink="http://www.w3.org/1999/xlink">
    <g id="Logo" stroke="none" stroke-width="1" fill="none" fill-rule="evenodd">
        <path d="M78.26,59.26 L61.8,24.83 L61.67,24.83 L59.93,53.9 C59.73,57.19 62.19,57.9 65.09,58.03 L65.09,59.26 L51.67,59.26 L51.67,58 C56.38,58 56.96,57 57.28,51.09 L59.21,26 C59.47,21.71 59,20.56 55,20.31 L55,19.14 L64.7,19.14 L80.26,51.7 L95.75,19.14 L105.23,19.14 L105.23,20.31 C102.07,20.56 100.84,20.63 100.97,22.83 L103,52.09 C103.39,58.03 103.9,58.03 108.61,58.03 L108.61,59.26 L92.07,59.26 L92.07,58 C95.07,58 98.07,57.16 97.81,53.74 L95.94,24.83 L95.81,24.83 L79.74,59.26 L78.26,59.26 Z" id="Path" fill="#0C677E" fill-rule="nonzero"></path>
        <path d="M51.17,20.45 C48.8552024,20.56439 46.6737595,21.5673523 45.08,23.25 C42.42,25.91 40.9,29.88 40.08,33.8 C38.6457051,34.5481759 37.1143913,35.0933909 35.53,35.42 L35.53,36.52 L40.3,36.52 L40.3,53.58 C40.3,56.68 39.83,57.74 37.3,57.98 C34.07,57.69 33.3,56.29 33.3,52.98 L33.3,25.54 C33.3,21.21 34.72,20.31 38.79,20.31 L38.79,19.08 L23.09,19.08 L23.09,20.31 C26.7,20.5 27.93,21.47 27.93,25 L27.93,52.48 C27.93,56.81 27.09,57.84 23.09,58.03 L23.09,59.26 L51.84,59.26 L51.84,58 L49.39,58 C45.78,58 44.62,57.16 44.62,54.19 L44.62,36.52 L51.62,36.52 L51.16,34.75 L44.7,33.69 L45.18,28.11 C45.63,24.85 46.81,22.32 48.83,22.32 C50.32,22.32 51.72,24.43 53.42,24.43 C53.8115958,24.430149 54.1866028,24.271903 54.4597102,23.9912616 C54.7328176,23.7106202 54.8808027,23.3314467 54.87,22.94 C54.87,21.59 53.21,20.45 51.2,20.45 L51.17,20.45 Z" id="Path" fill="#0C677E" fill-rule="nonzero"></path>
        <line x1="117.03" y1="19.08" x2="117.03" y2="59.26" id="Path" stroke="#0C677E" stroke-width="0.32"></line>
        <path d="M135.5,52 C137.25,52 138.8075,51.7491667 140.1725,51.2475 C141.5375,50.7458333 142.698333,50.0225 143.655,49.0775 C144.611667,48.1325 145.335,46.9716667 145.825,45.595 C146.315,44.2183333 146.56,42.6433333 146.56,40.87 L146.56,38.63 C146.56,35.06 145.5975,32.3125 143.6725,30.3875 C141.7475,28.4625 139.023333,27.5 135.5,27.5 L128.115,27.5 L128.115,52 L135.5,52 Z M135.5,49.725 L130.635,49.725 L130.635,29.775 L135.5,29.775 C138.23,29.775 140.324167,30.5275 141.7825,32.0325 C143.240833,33.5375 143.97,35.7366667 143.97,38.63 L143.97,40.87 C143.97,43.81 143.246667,46.0208333 141.8,47.5025 C140.353333,48.9841667 138.253333,49.725 135.5,49.725 Z M151.98,31.455 C152.446667,31.455 152.843333,31.2916667 153.17,30.965 C153.496667,30.6383333 153.66,30.2416667 153.66,29.775 C153.66,29.3083333 153.496667,28.9116667 153.17,28.585 C152.843333,28.2583333 152.446667,28.095 151.98,28.095 C151.513333,28.095 151.116667,28.2583333 150.79,28.585 C150.463333,28.9116667 150.3,29.3083333 150.3,29.775 C150.3,30.2416667 150.463333,30.6383333 150.79,30.965 C151.116667,31.2916667 151.513333,31.455 151.98,31.455 Z M153.17,52 L153.17,34.5 L150.79,34.5 L150.79,52 L153.17,52 Z M163.735,52.245 C166.021667,52.245 167.7075,51.7783333 168.7925,50.845 C169.8775,49.9116667 170.42,48.7216667 170.42,47.275 C170.42,46.1083333 170.1575,45.1866667 169.6325,44.51 C169.1075,43.8333333 168.454167,43.3083333 167.6725,42.935 C166.890833,42.5616667 166.045,42.2875 165.135,42.1125 C164.225,41.9375 163.379167,41.7391667 162.5975,41.5175 C161.815833,41.2958333 161.1625,41.01 160.6375,40.66 C160.1125,40.31 159.85,39.7733333 159.85,39.05 C159.85,38.28 160.141667,37.6558333 160.725,37.1775 C161.308333,36.6991667 162.311667,36.46 163.735,36.46 C165.018333,36.46 165.94,36.705 166.5,37.195 C167.06,37.685 167.433333,38.3733333 167.62,39.26 L170.07,39.26 C169.883333,37.7666667 169.276667,36.5591667 168.25,35.6375 C167.223333,34.7158333 165.718333,34.255 163.735,34.255 C162.685,34.255 161.763333,34.3775 160.97,34.6225 C160.176667,34.8675 159.511667,35.2058333 158.975,35.6375 C158.438333,36.0691667 158.041667,36.5766667 157.785,37.16 C157.528333,37.7433333 157.4,38.3733333 157.4,39.05 C157.4,40.1466667 157.6625,41.0041667 158.1875,41.6225 C158.7125,42.2408333 159.365833,42.725 160.1475,43.075 C160.929167,43.425 161.775,43.6933333 162.685,43.88 C163.595,44.0666667 164.440833,44.2825 165.2225,44.5275 C166.004167,44.7725 166.6575,45.0991667 167.1825,45.5075 C167.7075,45.9158333 167.97,46.505 167.97,47.275 C167.97,48.1383333 167.666667,48.815 167.06,49.305 C166.453333,49.795 165.345,50.04 163.735,50.04 C162.288333,50.04 161.2675,49.7833333 160.6725,49.27 C160.0775,48.7566667 159.686667,47.9633333 159.5,46.89 L157.05,46.89 C157.236667,48.57 157.860833,49.8825 158.9225,50.8275 C159.984167,51.7725 161.588333,52.245 163.735,52.245 Z M180.46,52.245 C182.396667,52.245 183.936667,51.7433333 185.08,50.74 C186.223333,49.7366667 186.97,48.4533333 187.32,46.89 L184.8,46.89 C184.45,47.87 183.948333,48.64 183.295,49.2 C182.641667,49.76 181.696667,50.04 180.46,50.04 C179.736667,50.04 179.06,49.9058333 178.43,49.6375 C177.8,49.3691667 177.2575,48.9783333 176.8025,48.465 C176.3475,47.9516667 175.991667,47.3216667 175.735,46.575 C175.478333,45.8283333 175.35,44.9766667 175.35,44.02 L175.35,42.48 C175.35,41.5 175.478333,40.6425 175.735,39.9075 C175.991667,39.1725 176.341667,38.5483333 176.785,38.035 C177.228333,37.5216667 177.765,37.1308333 178.395,36.8625 C179.025,36.5941667 179.713333,36.46 180.46,36.46 C181.696667,36.46 182.641667,36.7225 183.295,37.2475 C183.948333,37.7725 184.45,38.4433333 184.8,39.26 L187.32,39.26 C187.156667,38.56 186.888333,37.9066667 186.515,37.3 C186.141667,36.6933333 185.663333,36.1625 185.08,35.7075 C184.496667,35.2525 183.825833,34.8966667 183.0675,34.64 C182.309167,34.3833333 181.44,34.255 180.46,34.255 C179.34,34.255 178.313333,34.4416667 177.38,34.815 C176.446667,35.1883333 175.6475,35.7308333 174.9825,36.4425 C174.3175,37.1541667 173.804167,38.0175 173.4425,39.0325 C173.080833,40.0475 172.9,41.1966667 172.9,42.48 L172.9,44.02 C172.9,45.3033333 173.080833,46.4583333 173.4425,47.485 C173.804167,48.5116667 174.3175,49.375 174.9825,50.075 C175.6475,50.775 176.446667,51.3116667 177.38,51.685 C178.313333,52.0583333 179.34,52.245 180.46,52.245 Z M197.01,52.245 C198.176667,52.245 199.2325,52.0583333 200.1775,51.685 C201.1225,51.3116667 201.933333,50.7691667 202.61,50.0575 C203.286667,49.3458333 203.811667,48.4825 204.185,47.4675 C204.558333,46.4525 204.745,45.3033333 204.745,44.02 L204.745,42.48 C204.745,41.1733333 204.564167,40.0125 204.2025,38.9975 C203.840833,37.9825 203.315833,37.125 202.6275,36.425 C201.939167,35.725 201.1225,35.1883333 200.1775,34.815 C199.2325,34.4416667 198.176667,34.255 197.01,34.255 C195.866667,34.255 194.816667,34.4416667 193.86,34.815 C192.903333,35.1883333 192.086667,35.7308333 191.41,36.4425 C190.733333,37.1541667 190.208333,38.0175 189.835,39.0325 C189.461667,40.0475 189.275,41.1966667 189.275,42.48 L189.275,44.02 C189.275,45.3033333 189.455833,46.4583333 189.8175,47.485 C190.179167,48.5116667 190.704167,49.375 191.3925,50.075 C192.080833,50.775 192.8975,51.3116667 193.8425,51.685 C194.7875,52.0583333 195.843333,52.245 197.01,52.245 Z M197.01,50.04 C195.446667,50.04 194.175,49.515 193.195,48.465 C192.215,47.415 191.725,45.9333333 191.725,44.02 L191.725,42.48 C191.725,40.5433333 192.209167,39.0558333 193.1775,38.0175 C194.145833,36.9791667 195.423333,36.46 197.01,36.46 C198.573333,36.46 199.845,36.985 200.825,38.035 C201.805,39.085 202.295,40.5666667 202.295,42.48 L202.295,44.02 C202.295,45.9566667 201.810833,47.4441667 200.8425,48.4825 C199.874167,49.5208333 198.596667,50.04 197.01,50.04 Z M215.17,52 L221.645,34.5 L219.125,34.5 L213.77,49.305 L208.135,34.5 L205.475,34.5 L212.3,52 L215.17,52 Z M229.935,52.245 C231.008333,52.245 231.970833,52.105 232.8225,51.825 C233.674167,51.545 234.403333,51.1658333 235.01,50.6875 C235.616667,50.2091667 236.1125,49.6433333 236.4975,48.99 C236.8825,48.3366667 237.156667,47.625 237.32,46.855 L234.87,46.855 C234.52,47.765 233.971667,48.5233333 233.225,49.13 C232.478333,49.7366667 231.381667,50.04 229.935,50.04 C228.395,50.04 227.158333,49.5325 226.225,48.5175 C225.291667,47.5025 224.825,45.98 224.825,43.95 L237.495,43.95 L237.495,42.48 C237.495,41.1733333 237.314167,40.0066667 236.9525,38.98 C236.590833,37.9533333 236.0775,37.09 235.4125,36.39 C234.7475,35.69 233.954167,35.1591667 233.0325,34.7975 C232.110833,34.4358333 231.078333,34.255 229.935,34.255 C228.791667,34.255 227.759167,34.4358333 226.8375,34.7975 C225.915833,35.1591667 225.1225,35.69 224.4575,36.39 C223.7925,37.09 223.279167,37.9533333 222.9175,38.98 C222.555833,40.0066667 222.375,41.1733333 222.375,42.48 L222.375,44.02 C222.375,45.35 222.555833,46.5225 222.9175,47.5375 C223.279167,48.5525 223.786667,49.41 224.44,50.11 C225.093333,50.81 225.886667,51.3408333 226.82,51.7025 C227.753333,52.0641667 228.791667,52.245 229.935,52.245 Z M235.045,41.85 L224.825,41.85 C224.941667,40.1233333 225.455,38.7933333 226.365,37.86 C227.275,36.9266667 228.465,36.46 229.935,36.46 C231.405,36.46 232.595,36.9091667 233.505,37.8075 C234.415,38.7058333 234.928333,40.0533333 235.045,41.85 Z M243.405,52 L243.405,41.5 C243.405,40.7766667 243.5275,40.1 243.7725,39.47 C244.0175,38.84 244.373333,38.3033333 244.84,37.86 C245.306667,37.4166667 245.866667,37.0725 246.52,36.8275 C247.173333,36.5825 247.92,36.46 248.76,36.46 L250.51,36.46 L250.51,34.255 L248.76,34.255 C247.523333,34.255 246.426667,34.5175 245.47,35.0425 C244.513333,35.5675 243.743333,36.32 243.16,37.3 L242.88,34.5 L241.025,34.5 L241.025,52 L243.405,52 Z M258.695,59 L268.145,34.5 L265.625,34.5 L260.165,49.06 L254.285,34.5 L251.625,34.5 L258.87,52.035 L256.175,59 L258.695,59 Z" id="Discovery" fill="#0C677E" fill-rule="nonzero"></path>
    </g>
</svg>