<?xml version="1.0" encoding="UTF-8"?>
<svg width="286px" height="79px" viewBox="0 0 286 79" version="1.1" xmlns="http://www.w3.org/2000/svg" xmlns:xlink="http://www.w3.org/1999/xlink">
    <g id="Logo" stroke="none" stroke-width="1" fill="none" fill-rule="evenodd">
        <path d="M78.26,59.26 L61.8,24.83 L61.67,24.83 L59.93,53.9 C59.73,57.19 62.19,57.9 65.09,58.03 L65.09,59.26 L51.67,59.26 L51.67,58 C56.38,58 56.96,57 57.28,51.09 L59.21,26 C59.47,21.71 59,20.56 55,20.31 L55,19.14 L64.7,19.14 L80.26,51.7 L95.75,19.14 L105.23,19.14 L105.23,20.31 C102.07,20.56 100.84,20.63 100.97,22.83 L103,52.09 C103.39,58.03 103.9,58.03 108.61,58.03 L108.61,59.26 L92.07,59.26 L92.07,58 C95.07,58 98.07,57.16 97.81,53.74 L95.94,24.83 L95.81,24.83 L79.74,59.26 L78.26,59.26 Z" id="Path" fill="#0C677E" fill-rule="nonzero"></path>
        <path d="M51.17,20.45 C48.8552024,20.56439 46.6737595,21.5673523 45.08,23.25 C42.42,25.91 40.9,29.88 40.08,33.8 C38.6457051,34.5481759 37.1143913,35.0933909 35.53,35.42 L35.53,36.52 L40.3,36.52 L40.3,53.58 C40.3,56.68 39.83,57.74 37.3,57.98 C34.07,57.69 33.3,56.29 33.3,52.98 L33.3,25.54 C33.3,21.21 34.72,20.31 38.79,20.31 L38.79,19.08 L23.09,19.08 L23.09,20.31 C26.7,20.5 27.93,21.47 27.93,25 L27.93,52.48 C27.93,56.81 27.09,57.84 23.09,58.03 L23.09,59.26 L51.84,59.26 L51.84,58 L49.39,58 C45.78,58 44.62,57.16 44.62,54.19 L44.62,36.52 L51.62,36.52 L51.16,34.75 L44.7,33.69 L45.18,28.11 C45.63,24.85 46.81,22.32 48.83,22.32 C50.32,22.32 51.72,24.43 53.42,24.43 C53.8115958,24.430149 54.1866028,24.271903 54.4597102,23.9912616 C54.7328176,23.7106202 54.8808027,23.3314467 54.87,22.94 C54.87,21.59 53.21,20.45 51.2,20.45 L51.17,20.45 Z" id="Path" fill="#0C677E" fill-rule="nonzero"></path>
    </g>
</svg>